<svg id="svg" version="1.1" xmlns="http://www.w3.org/2000/svg" xmlns:xlink="http://www.w3.org/1999/xlink" width="400" height="400" viewBox="0, 0, 400,400"><g id="svgg"><path id="path0" d="M190.400 73.800 C 190.040 74.233,189.089 74.400,186.975 74.400 C 185.365 74.400,183.936 74.580,183.800 74.800 C 183.664 75.020,182.404 75.200,181.000 75.200 C 179.596 75.200,178.336 75.380,178.200 75.600 C 178.064 75.820,177.265 76.000,176.425 76.000 C 175.556 76.000,174.684 76.258,174.400 76.600 C 174.116 76.942,173.244 77.200,172.375 77.200 C 171.535 77.200,170.736 77.380,170.600 77.600 C 170.464 77.820,169.845 78.000,169.225 78.000 C 168.605 78.000,167.874 78.270,167.600 78.600 C 167.326 78.930,166.595 79.200,165.975 79.200 C 165.355 79.200,164.736 79.380,164.600 79.600 C 164.464 79.820,163.823 80.000,163.176 80.000 C 162.529 80.000,162.000 80.180,162.000 80.400 C 162.000 80.620,161.662 80.800,161.249 80.800 C 160.836 80.800,160.274 81.070,160.000 81.400 C 159.726 81.730,158.984 82.000,158.351 82.000 C 157.718 82.000,157.200 82.180,157.200 82.400 C 157.200 82.620,156.862 82.800,156.449 82.800 C 156.036 82.800,155.474 83.070,155.200 83.400 C 154.926 83.730,154.364 84.000,153.951 84.000 C 153.538 84.000,153.200 84.180,153.200 84.400 C 153.200 84.620,152.958 84.800,152.661 84.800 C 151.832 84.800,149.812 85.903,149.003 86.797 C 148.603 87.239,147.944 87.600,147.538 87.600 C 147.132 87.600,146.800 87.780,146.800 88.000 C 146.800 88.220,146.471 88.400,146.070 88.400 C 145.668 88.400,144.917 88.850,144.400 89.400 C 143.883 89.950,143.231 90.400,142.950 90.400 C 142.668 90.400,141.827 91.030,141.079 91.800 C 140.331 92.570,139.463 93.200,139.150 93.200 C 138.836 93.200,137.239 94.550,135.600 96.200 C 133.961 97.850,132.442 99.200,132.225 99.200 C 131.687 99.200,128.400 102.461,128.400 102.994 C 128.400 103.229,127.140 104.672,125.600 106.200 C 124.060 107.728,122.800 109.235,122.800 109.549 C 122.800 109.863,122.170 110.731,121.400 111.479 C 120.630 112.227,120.000 113.065,120.000 113.341 C 120.000 113.617,119.370 114.454,118.600 115.200 C 117.830 115.946,117.200 116.862,117.200 117.236 C 117.200 117.609,116.930 118.018,116.600 118.145 C 116.270 118.271,116.000 118.713,116.000 119.125 C 116.000 119.538,115.640 120.202,115.200 120.600 C 114.760 120.998,114.400 121.544,114.400 121.813 C 114.400 122.082,114.130 122.526,113.800 122.800 C 113.470 123.074,113.200 123.596,113.200 123.961 C 113.200 124.325,112.840 124.883,112.400 125.200 C 111.960 125.517,111.600 126.086,111.600 126.465 C 111.600 126.843,111.425 127.261,111.211 127.393 C 110.871 127.603,110.316 128.670,109.438 130.800 C 109.302 131.130,108.846 131.940,108.425 132.600 C 108.003 133.260,107.645 134.115,107.629 134.500 C 107.613 134.885,107.420 135.200,107.200 135.200 C 106.980 135.200,106.800 135.718,106.800 136.351 C 106.800 136.984,106.530 137.726,106.200 138.000 C 105.870 138.274,105.600 138.836,105.600 139.249 C 105.600 139.662,105.420 140.000,105.200 140.000 C 104.980 140.000,104.800 140.630,104.800 141.400 C 104.800 142.170,104.620 142.800,104.400 142.800 C 104.180 142.800,104.000 143.138,104.000 143.551 C 104.000 143.964,103.730 144.526,103.400 144.800 C 103.070 145.074,102.800 145.816,102.800 146.449 C 102.800 147.082,102.620 147.600,102.400 147.600 C 102.180 147.600,102.000 148.118,102.000 148.751 C 102.000 149.384,101.730 150.126,101.400 150.400 C 101.070 150.674,100.800 151.405,100.800 152.025 C 100.800 152.645,100.620 153.264,100.400 153.400 C 100.180 153.536,100.000 154.166,100.000 154.800 C 100.000 155.434,99.820 156.064,99.600 156.200 C 99.380 156.336,99.200 157.135,99.200 157.975 C 99.200 158.844,98.942 159.716,98.600 160.000 C 98.258 160.284,98.000 161.156,98.000 162.025 C 98.000 162.865,97.820 163.664,97.600 163.800 C 97.380 163.936,97.200 164.735,97.200 165.575 C 97.200 166.444,96.942 167.316,96.600 167.600 C 96.183 167.946,96.000 168.867,96.000 170.625 C 96.000 172.015,95.820 173.264,95.600 173.400 C 95.380 173.536,95.200 174.796,95.200 176.200 C 95.200 177.604,95.020 178.864,94.800 179.000 C 94.571 179.141,94.400 181.190,94.400 183.781 C 94.400 187.442,94.284 188.359,93.800 188.545 C 92.895 188.892,92.895 215.798,93.800 216.145 C 94.285 216.331,94.400 217.254,94.400 220.964 C 94.400 223.592,94.571 225.658,94.800 225.800 C 95.020 225.936,95.200 227.196,95.200 228.600 C 95.200 230.004,95.380 231.264,95.600 231.400 C 95.820 231.536,96.000 232.515,96.000 233.575 C 96.000 234.800,96.219 235.683,96.600 236.000 C 96.966 236.304,97.200 237.180,97.200 238.249 C 97.200 239.212,97.380 240.000,97.600 240.000 C 97.820 240.000,98.000 240.816,98.000 241.813 C 98.000 243.055,98.189 243.698,98.600 243.855 C 99.006 244.011,99.200 244.647,99.200 245.819 C 99.200 246.773,99.380 247.664,99.600 247.800 C 99.820 247.936,100.000 248.577,100.000 249.224 C 100.000 249.871,100.180 250.400,100.400 250.400 C 100.620 250.400,100.800 250.918,100.800 251.551 C 100.800 252.184,101.070 252.926,101.400 253.200 C 101.730 253.474,102.000 254.205,102.000 254.825 C 102.000 255.445,102.180 256.064,102.400 256.200 C 102.620 256.336,102.800 256.777,102.800 257.181 C 102.800 257.584,103.070 258.018,103.400 258.145 C 103.747 258.278,104.000 258.876,104.000 259.564 C 104.000 260.218,104.180 260.864,104.400 261.000 C 104.620 261.136,104.800 261.597,104.800 262.024 C 104.800 262.451,104.980 262.800,105.200 262.800 C 105.420 262.800,105.600 263.149,105.600 263.576 C 105.600 264.003,105.775 264.461,105.989 264.593 C 106.203 264.726,106.653 265.456,106.989 266.217 C 107.325 266.978,107.875 268.222,108.211 268.983 C 108.547 269.744,108.997 270.474,109.211 270.607 C 109.425 270.739,109.600 271.197,109.600 271.624 C 109.600 272.051,109.780 272.400,110.000 272.400 C 110.220 272.400,110.400 272.738,110.400 273.151 C 110.400 273.564,110.670 274.126,111.000 274.400 C 111.330 274.674,111.600 275.118,111.600 275.387 C 111.600 275.656,111.960 276.202,112.400 276.600 C 112.840 276.998,113.200 277.662,113.200 278.075 C 113.200 278.487,113.470 278.929,113.800 279.055 C 114.130 279.182,114.400 279.598,114.400 279.981 C 114.400 280.363,114.760 281.002,115.200 281.400 C 115.640 281.798,116.000 282.323,116.000 282.566 C 116.000 282.809,116.450 283.493,117.000 284.087 C 117.550 284.680,118.000 285.408,118.000 285.704 C 118.000 286.001,118.630 286.854,119.400 287.600 C 120.170 288.346,120.800 289.152,120.800 289.391 C 120.800 289.630,121.880 290.894,123.200 292.200 C 124.520 293.506,125.600 294.801,125.600 295.076 C 125.600 295.758,136.612 306.800,137.292 306.800 C 137.590 306.800,138.628 307.610,139.600 308.600 C 140.572 309.590,141.564 310.400,141.805 310.400 C 142.046 310.400,142.854 311.030,143.600 311.800 C 144.346 312.570,145.256 313.200,145.622 313.200 C 145.988 313.200,146.626 313.650,147.039 314.200 C 147.452 314.750,147.990 315.200,148.233 315.200 C 148.928 315.200,150.922 316.281,151.889 317.182 C 152.371 317.632,153.033 318.000,153.360 318.000 C 153.686 318.000,154.057 318.169,154.184 318.375 C 154.488 318.867,156.774 320.000,157.461 320.000 C 157.758 320.000,158.000 320.180,158.000 320.400 C 158.000 320.620,158.349 320.800,158.776 320.800 C 159.203 320.800,159.657 320.969,159.784 321.175 C 160.078 321.649,162.363 322.800,163.012 322.800 C 163.282 322.800,163.726 323.070,164.000 323.400 C 164.274 323.730,165.016 324.000,165.649 324.000 C 166.282 324.000,166.800 324.180,166.800 324.400 C 166.800 324.620,167.149 324.800,167.576 324.800 C 168.003 324.800,168.464 324.980,168.600 325.200 C 168.736 325.420,169.382 325.600,170.036 325.600 C 170.724 325.600,171.322 325.853,171.455 326.200 C 171.597 326.570,172.205 326.800,173.043 326.800 C 173.789 326.800,174.400 326.980,174.400 327.200 C 174.400 327.420,174.929 327.600,175.576 327.600 C 176.223 327.600,176.864 327.780,177.000 328.000 C 177.136 328.220,177.935 328.400,178.775 328.400 C 179.644 328.400,180.516 328.658,180.800 329.000 C 181.104 329.366,181.980 329.600,183.049 329.600 C 184.012 329.600,184.800 329.780,184.800 330.000 C 184.800 330.220,185.768 330.400,186.951 330.400 C 188.375 330.400,189.270 330.603,189.600 331.000 C 189.946 331.417,190.867 331.600,192.625 331.600 C 194.015 331.600,195.264 331.780,195.400 332.000 C 195.536 332.220,197.257 332.400,199.224 332.400 C 201.341 332.400,202.800 332.563,202.800 332.800 C 202.800 333.060,208.800 333.200,220.000 333.200 C 231.200 333.200,237.200 333.060,237.200 332.800 C 237.200 332.559,238.867 332.400,241.400 332.400 C 243.933 332.400,245.600 332.241,245.600 332.000 C 245.600 331.763,247.050 331.600,249.151 331.600 C 251.820 331.600,252.826 331.451,253.200 331.000 C 253.546 330.583,254.467 330.400,256.225 330.400 C 257.615 330.400,258.864 330.220,259.000 330.000 C 259.136 329.780,260.205 329.600,261.375 329.600 C 262.778 329.600,263.672 329.396,264.000 329.000 C 264.317 328.619,265.200 328.400,266.425 328.400 C 267.485 328.400,268.464 328.220,268.600 328.000 C 268.736 327.780,269.816 327.600,271.000 327.600 C 272.184 327.600,273.264 327.420,273.400 327.200 C 273.536 326.980,274.335 326.800,275.175 326.800 C 276.044 326.800,276.916 326.542,277.200 326.200 C 277.484 325.858,278.356 325.600,279.225 325.600 C 280.065 325.600,280.864 325.420,281.000 325.200 C 281.136 324.980,281.946 324.800,282.800 324.800 C 283.654 324.800,284.464 324.620,284.600 324.400 C 284.736 324.180,285.355 324.000,285.975 324.000 C 286.595 324.000,287.326 323.730,287.600 323.400 C 287.884 323.058,288.756 322.800,289.625 322.800 C 290.465 322.800,291.264 322.620,291.400 322.400 C 291.536 322.180,292.166 322.000,292.800 322.000 C 293.434 322.000,294.057 321.831,294.184 321.625 C 294.447 321.200,296.736 320.000,297.284 320.000 C 297.879 320.000,302.800 314.890,302.800 314.271 C 302.800 313.956,303.070 313.474,303.400 313.200 C 303.730 312.926,304.000 312.184,304.000 311.551 C 304.000 310.918,304.180 310.400,304.400 310.400 C 304.620 310.400,304.800 309.601,304.800 308.624 C 304.800 307.647,304.980 306.736,305.200 306.600 C 305.427 306.460,305.600 304.479,305.600 302.025 C 305.600 298.667,305.734 297.586,306.200 297.200 C 306.697 296.787,306.800 295.314,306.800 288.600 C 306.800 281.886,306.697 280.413,306.200 280.000 C 305.731 279.611,305.600 278.508,305.600 274.951 C 305.600 272.184,305.443 270.400,305.200 270.400 C 304.980 270.400,304.800 269.590,304.800 268.600 C 304.800 267.610,304.620 266.800,304.400 266.800 C 304.180 266.800,304.000 266.462,304.000 266.049 C 304.000 265.636,303.730 265.074,303.400 264.800 C 303.070 264.526,302.795 264.099,302.790 263.851 C 302.775 263.176,299.657 260.000,299.009 260.000 C 298.700 260.000,298.336 259.820,298.200 259.600 C 298.064 259.380,297.445 259.200,296.825 259.200 C 296.205 259.200,295.474 258.930,295.200 258.600 C 294.854 258.183,293.933 258.000,292.175 258.000 C 290.785 258.000,289.536 257.820,289.400 257.600 C 289.264 257.380,287.824 257.200,286.200 257.200 C 284.576 257.200,283.136 257.380,283.000 257.600 C 282.864 257.820,281.165 258.000,279.225 258.000 C 276.578 258.000,275.574 258.150,275.200 258.600 C 274.870 258.997,273.975 259.200,272.551 259.200 C 271.368 259.200,270.400 259.380,270.400 259.600 C 270.400 259.820,269.871 260.000,269.224 260.000 C 268.577 260.000,267.936 260.180,267.800 260.400 C 267.664 260.620,267.045 260.800,266.425 260.800 C 265.805 260.800,265.074 261.070,264.800 261.400 C 264.526 261.730,263.795 262.000,263.175 262.000 C 262.555 262.000,261.936 262.180,261.800 262.400 C 261.664 262.620,261.101 262.800,260.548 262.800 C 259.995 262.800,259.273 263.070,258.943 263.400 C 258.613 263.730,257.636 264.000,256.771 264.000 C 255.907 264.000,255.200 264.180,255.200 264.400 C 255.200 264.620,254.570 264.800,253.800 264.800 C 253.030 264.800,252.400 264.980,252.400 265.200 C 252.400 265.420,251.432 265.600,250.249 265.600 C 248.825 265.600,247.930 265.803,247.600 266.200 C 247.254 266.617,246.333 266.800,244.575 266.800 C 243.185 266.800,241.936 266.980,241.800 267.200 C 241.643 267.453,236.804 267.600,228.600 267.600 C 220.396 267.600,215.557 267.453,215.400 267.200 C 215.264 266.980,214.195 266.800,213.025 266.800 C 211.622 266.800,210.728 266.596,210.400 266.200 C 210.126 265.870,209.384 265.600,208.751 265.600 C 208.118 265.600,207.600 265.420,207.600 265.200 C 207.600 264.980,206.970 264.800,206.200 264.800 C 205.430 264.800,204.800 264.620,204.800 264.400 C 204.800 264.180,204.451 264.000,204.024 264.000 C 203.597 264.000,203.143 263.831,203.016 263.625 C 202.721 263.149,200.435 262.000,199.781 262.000 C 199.509 262.000,199.182 261.730,199.055 261.400 C 198.929 261.070,198.487 260.800,198.075 260.800 C 197.662 260.800,196.998 260.440,196.600 260.000 C 196.202 259.560,195.670 259.200,195.419 259.200 C 195.168 259.200,194.259 258.480,193.400 257.600 C 192.541 256.720,191.596 256.000,191.302 256.000 C 190.603 256.000,184.000 249.397,184.000 248.698 C 184.000 248.404,183.280 247.459,182.400 246.600 C 181.520 245.741,180.800 244.832,180.800 244.581 C 180.800 244.330,180.440 243.798,180.000 243.400 C 179.560 243.002,179.200 242.338,179.200 241.925 C 179.200 241.513,178.930 241.071,178.600 240.945 C 178.270 240.818,178.000 240.491,178.000 240.219 C 178.000 239.565,176.851 237.279,176.375 236.984 C 176.169 236.857,176.000 236.403,176.000 235.976 C 176.000 235.549,175.820 235.200,175.600 235.200 C 175.380 235.200,175.200 234.851,175.200 234.424 C 175.200 233.997,175.020 233.536,174.800 233.400 C 174.580 233.264,174.400 232.645,174.400 232.025 C 174.400 231.405,174.130 230.674,173.800 230.400 C 172.986 229.725,173.046 229.110,174.005 228.289 C 174.757 227.644,178.310 227.600,229.181 227.600 C 264.997 227.600,283.637 227.463,283.800 227.200 C 283.938 226.977,285.788 226.800,287.975 226.800 C 290.978 226.800,292.019 226.659,292.400 226.200 C 292.684 225.858,293.556 225.600,294.425 225.600 C 295.265 225.600,296.064 225.420,296.200 225.200 C 296.336 224.980,296.797 224.800,297.224 224.800 C 297.651 224.800,298.000 224.620,298.000 224.400 C 298.000 224.180,298.310 224.000,298.688 224.000 C 299.602 224.000,304.000 219.622,304.000 218.713 C 304.000 218.321,304.180 218.000,304.400 218.000 C 304.620 218.000,304.800 217.651,304.800 217.224 C 304.800 216.797,304.980 216.336,305.200 216.200 C 305.420 216.064,305.600 214.993,305.600 213.819 C 305.600 212.292,305.770 211.620,306.200 211.455 C 306.685 211.269,306.800 210.346,306.800 206.636 C 306.800 204.008,306.971 201.942,307.200 201.800 C 307.439 201.652,307.600 199.004,307.600 195.200 C 307.600 191.396,307.439 188.748,307.200 188.600 C 306.957 188.450,306.800 185.458,306.800 180.964 C 306.800 174.765,306.703 173.538,306.200 173.345 C 305.729 173.164,305.600 172.353,305.600 169.581 C 305.600 167.637,305.420 165.936,305.200 165.800 C 304.980 165.664,304.800 164.123,304.800 162.376 C 304.800 160.525,304.633 159.200,304.400 159.200 C 304.180 159.200,304.000 158.232,304.000 157.049 C 304.000 155.625,303.797 154.730,303.400 154.400 C 303.003 154.070,302.800 153.175,302.800 151.751 C 302.800 150.568,302.620 149.600,302.400 149.600 C 302.180 149.600,302.000 148.812,302.000 147.849 C 302.000 146.780,301.766 145.904,301.400 145.600 C 301.058 145.316,300.800 144.444,300.800 143.575 C 300.800 142.735,300.620 141.936,300.400 141.800 C 300.180 141.664,300.000 141.034,300.000 140.400 C 300.000 139.766,299.820 139.136,299.600 139.000 C 299.380 138.864,299.200 138.243,299.200 137.619 C 299.200 136.981,298.938 136.385,298.600 136.255 C 298.253 136.122,298.000 135.524,298.000 134.836 C 298.000 134.182,297.820 133.536,297.600 133.400 C 297.380 133.264,297.200 132.634,297.200 132.000 C 297.200 131.366,297.031 130.743,296.825 130.616 C 296.218 130.240,295.200 127.952,295.200 126.962 C 295.200 126.459,295.020 125.936,294.800 125.800 C 294.580 125.664,294.400 125.223,294.400 124.819 C 294.400 124.416,294.130 123.982,293.800 123.855 C 293.470 123.729,293.200 123.355,293.200 123.025 C 293.200 122.695,292.840 121.783,292.400 121.000 C 291.960 120.217,291.600 119.336,291.600 119.044 C 291.600 118.751,291.150 118.174,290.600 117.761 C 290.050 117.348,289.600 116.715,289.600 116.354 C 289.600 115.993,289.330 115.474,289.000 115.200 C 288.670 114.926,288.400 114.404,288.400 114.039 C 288.400 113.675,288.040 113.117,287.600 112.800 C 287.160 112.483,286.800 111.935,286.800 111.581 C 286.800 111.228,286.350 110.517,285.800 110.000 C 285.250 109.483,284.800 108.860,284.800 108.615 C 284.800 108.370,283.900 107.283,282.800 106.200 C 281.700 105.117,280.800 103.993,280.800 103.703 C 280.800 103.000,271.007 93.200,270.305 93.200 C 270.004 93.200,269.146 92.570,268.400 91.800 C 267.654 91.030,266.844 90.400,266.600 90.400 C 266.356 90.400,265.546 89.770,264.800 89.000 C 264.054 88.230,263.118 87.600,262.722 87.600 C 262.325 87.600,262.000 87.420,262.000 87.200 C 262.000 86.980,261.671 86.800,261.270 86.800 C 260.868 86.800,260.117 86.350,259.600 85.800 C 259.083 85.250,258.332 84.800,257.930 84.800 C 257.529 84.800,257.200 84.620,257.200 84.400 C 257.200 84.180,256.851 84.000,256.424 84.000 C 255.997 84.000,255.543 83.831,255.416 83.625 C 255.121 83.149,252.835 82.000,252.181 82.000 C 251.909 82.000,251.582 81.730,251.455 81.400 C 251.329 81.070,250.767 80.800,250.207 80.800 C 249.647 80.800,248.832 80.620,248.395 80.400 C 247.958 80.180,247.242 79.820,246.805 79.600 C 246.368 79.380,245.578 79.200,245.048 79.200 C 244.519 79.200,243.982 78.930,243.855 78.600 C 243.722 78.253,243.124 78.000,242.436 78.000 C 241.782 78.000,241.136 77.820,241.000 77.600 C 240.864 77.380,239.973 77.200,239.019 77.200 C 237.847 77.200,237.211 77.006,237.055 76.600 C 236.898 76.189,236.255 76.000,235.013 76.000 C 234.016 76.000,233.200 75.820,233.200 75.600 C 233.200 75.380,232.221 75.200,231.024 75.200 C 229.827 75.200,228.736 75.020,228.600 74.800 C 228.464 74.580,226.765 74.400,224.825 74.400 C 222.178 74.400,221.174 74.250,220.800 73.800 C 220.374 73.287,218.181 73.200,205.600 73.200 C 193.019 73.200,190.826 73.287,190.400 73.800 M218.061 85.900 C 218.368 86.208,219.672 86.400,221.456 86.400 C 223.049 86.400,224.452 86.561,224.574 86.758 C 224.695 86.955,225.471 87.209,226.297 87.324 C 228.389 87.615,231.873 88.540,232.234 88.900 C 232.398 89.065,233.033 89.200,233.643 89.200 C 234.253 89.200,234.864 89.380,235.000 89.600 C 235.136 89.820,235.582 90.000,235.991 90.000 C 236.400 90.000,237.245 90.254,237.868 90.564 C 238.490 90.874,240.080 91.639,241.400 92.264 C 242.720 92.889,243.860 93.535,243.933 93.700 C 244.007 93.865,244.301 94.000,244.588 94.000 C 245.393 94.000,247.130 94.998,251.800 98.142 C 253.120 99.031,254.290 99.857,254.400 99.979 C 254.510 100.101,255.860 101.279,257.400 102.598 C 260.981 105.665,264.655 109.628,267.000 112.954 C 267.440 113.578,268.025 114.326,268.300 114.616 C 268.575 114.906,268.800 115.254,268.800 115.389 C 268.800 115.524,269.250 116.120,269.800 116.713 C 270.350 117.307,270.800 118.019,270.800 118.296 C 270.800 118.573,270.980 118.800,271.200 118.800 C 271.420 118.800,271.600 119.001,271.600 119.246 C 271.600 119.492,272.244 120.570,273.030 121.641 C 274.542 123.701,274.710 125.095,273.417 124.867 C 272.371 124.682,268.555 125.931,267.954 126.656 C 267.102 127.682,271.833 136.400,273.243 136.400 C 276.371 136.400,277.154 135.573,276.273 133.200 C 276.151 132.870,275.964 131.880,275.858 131.000 C 275.751 130.120,275.539 128.905,275.386 128.300 C 275.206 127.590,275.265 127.200,275.553 127.200 C 275.799 127.200,276.000 127.538,276.000 127.951 C 276.000 128.364,276.270 128.926,276.600 129.200 C 276.930 129.474,277.200 129.946,277.200 130.249 C 277.200 130.552,277.345 130.800,277.523 130.800 C 277.838 130.800,278.511 132.160,279.800 135.400 C 280.682 137.620,281.023 138.444,281.538 139.600 C 282.231 141.156,282.864 142.887,283.219 144.200 C 283.398 144.860,283.838 146.390,284.196 147.600 C 286.295 154.690,288.034 164.781,288.989 175.405 C 289.492 181.009,289.895 203.313,289.500 203.697 C 289.445 203.751,258.260 203.886,220.200 203.997 L 151.000 204.200 151.088 205.200 C 151.178 206.213,151.620 209.273,152.361 214.000 C 152.585 215.430,153.065 217.950,153.427 219.600 C 153.790 221.250,154.242 223.320,154.432 224.200 C 154.623 225.080,155.066 226.790,155.417 228.000 C 155.768 229.210,156.200 230.740,156.376 231.400 C 157.267 234.736,158.610 238.313,160.440 242.226 C 160.858 243.121,161.200 243.974,161.200 244.122 C 161.200 244.723,165.922 252.022,168.367 255.200 C 172.055 259.994,179.088 266.637,182.269 268.332 C 182.747 268.586,183.384 269.021,183.686 269.297 C 184.403 269.955,185.477 270.619,187.200 271.468 C 187.970 271.848,188.690 272.278,188.800 272.425 C 188.910 272.572,189.405 272.819,189.900 272.973 C 190.395 273.128,190.800 273.422,190.800 273.627 C 190.800 273.832,191.162 274.000,191.605 274.000 C 192.411 274.000,192.697 274.111,195.062 275.343 C 195.756 275.704,196.690 276.000,197.138 276.000 C 197.586 276.000,198.064 276.180,198.200 276.400 C 198.336 276.620,199.067 276.800,199.824 276.800 C 200.581 276.800,201.200 276.980,201.200 277.200 C 201.200 277.420,201.695 277.606,202.300 277.614 C 202.905 277.622,203.850 277.886,204.400 278.200 C 204.950 278.514,206.129 278.778,207.020 278.786 C 207.911 278.794,208.811 278.966,209.020 279.169 C 210.399 280.508,234.192 280.807,244.400 279.614 C 246.270 279.396,248.790 279.112,250.000 278.983 C 251.210 278.854,252.767 278.490,253.460 278.174 C 254.154 277.858,255.459 277.600,256.360 277.600 C 257.262 277.600,258.000 277.420,258.000 277.200 C 258.000 276.980,258.632 276.800,259.405 276.800 C 260.178 276.800,261.123 276.633,261.505 276.429 C 262.565 275.863,266.249 274.800,267.152 274.800 C 267.592 274.800,268.064 274.620,268.200 274.400 C 268.336 274.180,268.932 273.994,269.524 273.987 C 270.116 273.980,270.949 273.710,271.376 273.387 C 271.804 273.064,272.558 272.800,273.053 272.800 C 273.548 272.800,274.064 272.620,274.200 272.400 C 274.336 272.180,274.966 272.000,275.600 272.000 C 276.234 272.000,276.864 271.820,277.000 271.600 C 277.136 271.380,277.699 271.200,278.252 271.200 C 278.805 271.200,279.527 270.930,279.857 270.600 C 280.187 270.270,280.884 270.000,281.405 270.000 C 281.926 270.000,282.464 269.820,282.600 269.600 C 282.736 269.380,283.242 269.194,283.724 269.187 C 284.206 269.180,284.949 268.910,285.376 268.587 C 287.049 267.323,289.891 268.415,288.322 269.719 C 288.004 269.984,287.434 270.701,287.054 271.313 C 286.675 271.925,286.192 272.319,285.980 272.188 C 285.509 271.897,277.498 274.358,277.699 274.732 C 280.972 280.831,276.721 284.865,264.400 287.353 C 222.784 295.757,190.338 291.304,167.400 274.040 C 162.587 270.417,154.612 263.869,153.880 262.939 C 152.331 260.969,151.440 260.800,142.620 260.800 C 134.033 260.800,131.588 261.348,133.160 262.920 C 133.728 263.488,133.726 264.675,133.155 265.028 C 132.911 265.179,132.571 265.076,132.400 264.800 C 132.229 264.524,131.880 264.427,131.624 264.585 C 130.212 265.458,118.800 246.444,118.800 243.219 C 118.800 242.983,118.632 242.477,118.426 242.095 C 117.474 240.329,116.800 238.615,116.800 237.962 C 116.800 237.569,116.620 237.136,116.400 237.000 C 116.180 236.864,116.000 236.320,116.000 235.790 C 116.000 235.260,115.752 234.236,115.448 233.514 C 114.509 231.279,114.000 229.394,114.000 228.152 C 114.000 227.496,113.834 226.789,113.631 226.580 C 112.930 225.859,111.920 219.912,111.222 212.400 C 111.028 210.310,110.680 207.340,110.448 205.800 C 109.927 202.344,109.932 192.242,110.455 189.000 C 110.668 187.680,110.931 184.980,111.039 183.000 C 111.148 181.020,111.401 179.040,111.602 178.600 C 111.802 178.160,112.047 176.720,112.145 175.400 C 112.381 172.229,113.147 168.295,113.621 167.820 C 113.829 167.611,114.000 166.677,114.000 165.744 C 114.000 164.811,114.180 163.936,114.400 163.800 C 114.620 163.664,114.800 163.044,114.800 162.422 C 114.800 161.800,115.069 160.776,115.398 160.146 C 115.726 159.516,115.996 158.606,115.998 158.124 C 115.999 157.642,116.180 157.136,116.400 157.000 C 116.620 156.864,116.800 156.311,116.800 155.771 C 116.800 154.790,116.881 154.565,118.132 152.068 C 118.500 151.335,118.800 150.400,118.800 149.991 C 118.800 149.582,118.980 149.136,119.200 149.000 C 119.420 148.864,119.600 148.413,119.600 147.998 C 119.600 147.582,120.050 146.396,120.600 145.362 C 121.150 144.327,121.613 143.193,121.629 142.840 C 121.645 142.488,122.003 141.660,122.425 141.000 C 122.846 140.340,123.305 139.530,123.444 139.200 C 124.613 136.424,125.851 134.000,126.099 134.000 C 126.265 134.000,126.400 133.721,126.400 133.381 C 126.400 133.040,127.030 131.777,127.800 130.573 C 128.570 129.369,129.200 128.270,129.200 128.130 C 129.200 127.990,129.650 127.286,130.200 126.564 C 130.750 125.843,131.200 125.061,131.200 124.827 C 131.200 124.592,131.380 124.400,131.600 124.400 C 131.820 124.400,132.000 124.173,132.000 123.896 C 132.000 123.619,132.450 122.907,133.000 122.313 C 133.550 121.720,134.000 121.079,134.000 120.890 C 134.000 120.700,134.535 119.945,135.188 119.214 C 135.841 118.482,136.696 117.428,137.088 116.873 C 138.951 114.230,146.930 106.021,149.794 103.800 C 150.645 103.140,151.567 102.375,151.842 102.100 C 152.118 101.825,152.536 101.600,152.771 101.600 C 153.007 101.600,153.200 101.461,153.200 101.291 C 153.200 101.121,153.830 100.643,154.600 100.228 C 155.370 99.813,156.000 99.322,156.000 99.137 C 156.000 98.952,156.192 98.800,156.427 98.800 C 156.661 98.800,157.443 98.350,158.164 97.800 C 158.886 97.250,159.774 96.800,160.138 96.800 C 160.502 96.800,160.801 96.665,160.803 96.500 C 160.806 96.098,163.119 94.800,163.832 94.800 C 164.145 94.800,164.400 94.620,164.400 94.400 C 164.400 94.180,164.850 94.000,165.400 94.000 C 165.950 94.000,166.400 93.855,166.400 93.677 C 166.400 93.331,168.400 92.407,171.000 91.553 C 171.880 91.263,172.955 90.796,173.389 90.513 C 173.823 90.231,174.588 90.000,175.089 90.000 C 175.590 90.000,176.000 89.820,176.000 89.600 C 176.000 89.380,176.594 89.200,177.320 89.200 C 178.046 89.200,178.811 89.039,179.020 88.842 C 179.490 88.399,182.792 87.587,185.200 87.321 C 186.190 87.212,187.171 86.960,187.380 86.761 C 187.589 86.563,189.038 86.400,190.600 86.400 C 192.162 86.400,193.611 86.234,193.820 86.031 C 194.774 85.104,217.145 84.984,218.061 85.900 M199.800 114.481 C 192.926 115.126,191.787 115.283,191.420 115.635 C 191.211 115.836,190.587 116.000,190.033 116.000 C 183.541 116.000,169.256 126.183,163.941 134.600 C 160.613 139.872,156.439 149.667,156.410 152.276 C 156.404 152.758,156.244 153.249,156.053 153.367 C 155.862 153.485,155.596 154.351,155.462 155.291 C 155.328 156.231,154.929 158.260,154.576 159.800 C 153.400 164.931,152.833 172.086,153.442 174.100 C 153.642 174.762,156.298 174.800,201.884 174.800 L 250.115 174.800 249.814 171.900 C 249.649 170.305,249.361 166.660,249.174 163.800 C 248.673 156.141,247.964 151.661,246.751 148.481 C 246.558 147.976,246.400 147.131,246.400 146.605 C 246.400 146.078,246.220 145.536,246.000 145.400 C 245.780 145.264,245.600 144.810,245.600 144.390 C 245.600 139.018,232.082 120.800,228.097 120.800 C 227.860 120.800,227.607 120.653,227.533 120.473 C 227.411 120.172,223.039 117.976,220.200 116.790 C 218.950 116.268,216.657 115.684,214.600 115.364 C 213.940 115.262,212.500 115.009,211.400 114.802 C 208.561 114.269,203.537 114.130,199.800 114.481 M253.200 132.255 C 251.550 133.038,249.698 133.946,249.085 134.271 C 248.471 134.597,247.520 135.097,246.971 135.381 L 245.972 135.899 246.886 136.144 C 247.389 136.279,250.385 136.392,253.545 136.395 L 259.291 136.400 259.047 135.100 C 258.913 134.385,258.689 133.125,258.549 132.300 C 258.217 130.342,257.248 130.333,253.200 132.255 M205.745 138.600 C 205.914 139.042,206.613 139.200,208.393 139.200 C 209.723 139.200,211.123 139.365,211.505 139.566 C 211.887 139.768,212.867 140.223,213.683 140.577 C 214.499 140.931,215.274 141.397,215.407 141.611 C 215.539 141.825,215.954 142.000,216.329 142.000 C 216.703 142.000,217.348 142.450,217.761 143.000 C 218.174 143.550,218.797 144.000,219.145 144.000 C 219.933 144.000,224.800 148.770,224.800 149.543 C 224.800 149.854,225.250 150.525,225.800 151.035 C 226.350 151.545,226.800 152.230,226.800 152.557 C 226.800 152.885,226.980 153.264,227.200 153.400 C 227.420 153.536,227.600 153.997,227.600 154.424 C 227.600 154.851,227.780 155.200,228.000 155.200 C 228.220 155.200,228.400 155.538,228.400 155.951 C 228.400 156.364,228.670 156.926,229.000 157.200 C 229.330 157.474,229.600 158.201,229.600 158.816 C 229.600 159.430,229.825 160.012,230.100 160.108 C 230.460 160.234,230.386 160.524,229.838 161.142 L 229.076 162.000 202.800 162.000 C 177.489 162.000,176.499 161.972,175.836 161.240 C 175.386 160.742,175.295 160.388,175.574 160.216 C 175.808 160.071,176.000 159.598,176.000 159.164 C 176.000 158.730,176.270 158.271,176.600 158.145 C 176.930 158.018,177.200 157.584,177.200 157.181 C 177.200 156.777,177.380 156.336,177.600 156.200 C 177.820 156.064,178.000 155.623,178.000 155.219 C 178.000 154.816,178.270 154.382,178.600 154.255 C 178.930 154.129,179.200 153.695,179.200 153.291 C 179.200 152.887,179.830 151.946,180.600 151.200 C 181.370 150.454,182.000 149.658,182.000 149.432 C 182.000 148.876,186.864 144.000,187.419 144.000 C 187.662 144.000,188.283 143.550,188.800 143.000 C 189.317 142.450,190.057 142.000,190.446 142.000 C 190.835 142.000,191.257 141.831,191.384 141.625 C 191.760 141.018,194.048 140.000,195.038 140.000 C 195.541 140.000,196.064 139.820,196.200 139.600 C 196.336 139.380,197.585 139.200,198.975 139.200 C 200.733 139.200,201.654 139.017,202.000 138.600 C 202.282 138.261,203.154 138.000,204.006 138.000 C 204.978 138.000,205.596 138.213,205.745 138.600 " stroke="none" fill="#1e3e19" fill-rule="evenodd"></path><path id="path1" d="M195.400 85.476 C 194.740 85.578,194.020 85.846,193.800 86.072 C 193.527 86.351,193.973 86.399,195.200 86.222 C 199.460 85.607,211.797 85.548,215.336 86.124 C 218.601 86.657,218.822 86.651,218.222 86.050 C 217.581 85.408,198.888 84.938,195.400 85.476 M187.380 86.761 C 187.171 86.960,186.190 87.212,185.200 87.321 C 182.653 87.602,179.472 88.410,179.000 88.897 C 178.727 89.178,178.917 89.214,179.600 89.009 C 180.150 88.844,181.320 88.621,182.200 88.514 C 183.080 88.406,183.971 88.156,184.180 87.959 C 184.389 87.762,185.109 87.592,185.780 87.583 C 186.451 87.574,187.990 87.319,189.200 87.017 L 191.400 86.468 189.580 86.434 C 188.579 86.415,187.589 86.563,187.380 86.761 M220.600 86.817 C 221.480 86.992,223.190 87.317,224.400 87.540 C 228.073 88.217,230.580 88.865,230.980 89.242 C 231.189 89.439,231.853 89.600,232.456 89.600 C 233.059 89.600,233.664 89.780,233.800 90.000 C 233.936 90.220,234.474 90.400,234.995 90.400 C 235.516 90.400,236.213 90.670,236.543 91.000 C 236.873 91.330,237.516 91.600,237.971 91.600 C 238.427 91.600,238.800 91.780,238.800 92.000 C 238.800 92.570,238.121 92.488,235.438 91.590 C 234.139 91.156,232.519 90.812,231.838 90.827 L 230.600 90.854 231.600 91.286 C 243.128 96.269,253.623 105.526,255.425 112.302 C 256.332 115.714,254.977 115.528,246.400 111.063 C 238.788 107.100,237.491 106.476,233.837 105.013 C 201.988 92.261,168.783 101.972,145.671 130.800 C 143.996 132.890,142.232 135.029,141.751 135.554 C 141.270 136.079,140.635 136.974,140.338 137.542 C 140.042 138.111,139.563 138.851,139.274 139.188 C 138.985 139.525,138.121 140.655,137.356 141.700 C 134.744 145.264,133.215 142.962,134.832 137.901 C 135.254 136.578,135.600 135.164,135.600 134.758 C 135.600 133.940,137.306 129.495,139.039 125.800 C 141.920 119.657,147.236 112.090,152.541 106.582 C 154.333 104.721,155.575 103.198,155.300 103.199 C 155.025 103.200,154.800 103.380,154.800 103.600 C 154.800 103.820,154.545 104.000,154.233 104.000 C 153.922 104.000,153.607 104.135,153.533 104.300 C 153.460 104.465,152.500 105.320,151.400 106.199 C 146.489 110.126,136.073 121.647,134.690 124.681 C 134.460 125.186,134.120 125.600,133.936 125.600 C 133.751 125.600,133.600 125.808,133.600 126.062 C 133.600 126.316,133.191 127.081,132.692 127.762 C 132.192 128.443,131.518 129.540,131.193 130.200 C 130.867 130.860,130.507 131.490,130.392 131.600 C 130.159 131.824,127.621 137.038,126.693 139.200 C 126.122 140.531,124.720 144.649,123.606 148.270 C 123.323 149.189,123.200 150.224,123.333 150.570 C 123.466 150.917,123.387 151.200,123.157 151.200 C 122.924 151.200,122.791 151.811,122.857 152.579 C 122.923 153.337,122.859 154.075,122.715 154.218 C 122.248 154.686,123.308 156.400,124.064 156.400 C 124.469 156.400,124.800 156.593,124.800 156.828 C 124.800 158.991,129.079 153.870,129.175 151.593 C 129.189 151.259,129.641 150.337,130.179 149.544 C 130.718 148.752,131.278 147.627,131.424 147.045 C 132.343 143.384,136.714 143.714,137.077 147.472 C 137.158 148.312,137.578 149.485,138.009 150.079 C 138.440 150.672,138.631 151.257,138.434 151.379 C 137.993 151.651,138.353 153.200,138.857 153.200 C 139.056 153.200,139.403 153.605,139.627 154.100 C 141.251 157.688,141.768 158.000,146.091 158.000 C 149.704 158.000,151.600 157.376,151.600 156.186 C 151.600 155.338,152.958 153.205,153.500 153.203 C 153.775 153.201,154.021 152.885,154.046 152.500 C 154.127 151.273,154.189 151.026,154.749 149.700 C 155.050 148.985,155.455 148.400,155.649 148.400 C 156.154 148.400,156.081 149.903,155.526 150.926 C 155.075 151.758,154.816 152.857,153.997 157.400 C 151.142 173.252,151.201 174.838,154.657 175.000 C 155.784 175.053,155.979 175.021,155.120 174.923 C 154.177 174.817,153.566 174.510,153.435 174.078 C 152.833 172.084,153.406 164.904,154.576 159.800 C 154.929 158.260,155.328 156.231,155.462 155.291 C 155.596 154.351,155.862 153.485,156.053 153.367 C 156.244 153.249,156.404 152.758,156.410 152.276 C 156.439 149.667,160.613 139.872,163.941 134.600 C 169.256 126.183,183.541 116.000,190.033 116.000 C 190.587 116.000,191.211 115.836,191.420 115.635 C 191.802 115.268,193.072 115.097,199.916 114.490 C 206.102 113.942,216.096 115.075,220.200 116.790 C 223.039 117.976,227.411 120.172,227.533 120.473 C 227.607 120.653,227.860 120.800,228.097 120.800 C 232.082 120.800,245.600 139.018,245.600 144.390 C 245.600 144.810,245.780 145.264,246.000 145.400 C 246.220 145.536,246.400 146.078,246.400 146.605 C 246.400 147.131,246.558 147.976,246.751 148.481 C 247.985 151.715,248.653 156.026,249.218 164.400 C 249.840 173.611,250.376 176.211,250.168 169.000 C 250.072 165.700,249.890 161.200,249.762 159.000 C 249.505 154.565,250.053 154.108,250.722 158.200 C 252.577 169.551,252.461 169.388,258.736 169.435 C 261.750 169.458,264.113 169.692,265.402 170.094 C 266.501 170.437,268.238 170.935,269.261 171.200 C 270.428 171.502,271.615 172.190,272.440 173.041 L 273.757 174.400 277.655 174.400 C 279.822 174.400,281.663 174.222,281.800 174.000 C 281.936 173.780,282.556 173.600,283.178 173.600 C 284.941 173.600,285.450 172.382,285.769 167.408 C 286.090 162.395,286.400 161.388,286.400 165.360 C 286.400 166.841,286.574 168.377,286.786 168.775 C 286.999 169.172,287.283 171.185,287.417 173.248 C 287.551 175.312,287.827 177.978,288.030 179.173 C 288.234 180.369,288.400 186.354,288.400 192.473 L 288.400 203.600 219.424 203.600 C 180.693 203.600,150.353 203.753,150.232 203.948 C 149.820 204.614,150.779 212.014,152.440 221.000 C 152.643 222.100,152.921 223.855,153.056 224.900 C 153.191 225.945,153.459 226.800,153.651 226.800 C 153.843 226.800,154.000 227.531,154.000 228.424 C 154.000 229.402,153.841 229.949,153.601 229.800 C 153.133 229.511,151.200 225.535,151.200 224.861 C 151.200 224.608,150.964 224.400,150.675 224.400 C 150.386 224.400,149.405 224.040,148.494 223.600 C 146.943 222.850,146.027 222.800,133.919 222.806 C 119.181 222.813,117.893 223.000,117.675 225.160 C 117.606 225.842,117.412 226.400,117.244 226.400 C 116.803 226.400,116.789 231.546,117.230 231.819 C 117.880 232.220,117.678 235.200,117.000 235.200 C 116.604 235.200,116.400 234.804,116.400 234.032 C 116.400 233.390,116.144 232.355,115.830 231.732 C 115.517 231.110,115.055 229.790,114.803 228.800 C 114.552 227.810,114.168 226.419,113.950 225.709 C 113.515 224.288,113.019 221.682,112.368 217.400 C 111.371 210.839,111.248 210.325,111.412 213.400 C 111.688 218.574,112.911 225.839,113.631 226.580 C 113.834 226.789,114.000 227.496,114.000 228.152 C 114.000 229.394,114.509 231.279,115.448 233.514 C 115.752 234.236,116.000 235.260,116.000 235.790 C 116.000 236.320,116.180 236.864,116.400 237.000 C 116.620 237.136,116.800 237.569,116.800 237.962 C 116.800 238.615,117.474 240.329,118.426 242.095 C 118.632 242.477,118.800 242.983,118.800 243.219 C 118.800 246.444,130.212 265.458,131.624 264.585 C 131.880 264.427,132.229 264.524,132.400 264.800 C 132.571 265.076,132.911 265.179,133.155 265.028 C 133.726 264.675,133.728 263.488,133.160 262.920 C 131.588 261.348,134.033 260.800,142.620 260.800 C 151.440 260.800,152.331 260.969,153.880 262.939 C 154.612 263.869,162.587 270.417,167.400 274.040 C 190.338 291.304,222.784 295.757,264.400 287.353 C 276.721 284.865,280.972 280.831,277.699 274.732 C 277.498 274.358,285.509 271.897,285.980 272.188 C 286.192 272.319,286.675 271.925,287.054 271.313 C 287.434 270.701,288.004 269.984,288.322 269.719 C 289.891 268.415,287.049 267.323,285.376 268.587 C 284.434 269.300,285.280 269.407,286.387 268.715 C 287.314 268.137,287.929 268.589,287.386 269.450 C 286.992 270.074,285.779 270.558,278.400 273.034 C 274.257 274.424,272.065 275.274,270.705 276.019 C 270.323 276.229,269.753 276.400,269.438 276.400 C 269.123 276.400,268.355 276.652,267.732 276.960 C 266.215 277.710,263.925 278.400,262.952 278.400 C 262.516 278.400,261.989 278.566,261.780 278.769 C 261.374 279.163,258.036 279.941,255.400 280.255 C 254.520 280.360,253.440 280.607,253.000 280.805 C 252.560 281.002,251.210 281.249,250.000 281.352 C 248.790 281.455,246.630 281.723,245.200 281.948 C 240.739 282.648,228.794 283.307,224.400 283.094 C 218.186 282.793,211.054 282.008,210.620 281.578 C 210.411 281.370,209.387 281.200,208.344 281.200 C 207.301 281.200,206.336 281.020,206.200 280.800 C 206.064 280.580,205.558 280.399,205.076 280.398 C 204.594 280.396,203.684 280.126,203.054 279.798 C 202.424 279.469,201.490 279.200,200.978 279.200 C 200.466 279.200,199.936 279.020,199.800 278.800 C 199.664 278.580,199.186 278.400,198.737 278.400 C 198.288 278.400,197.354 278.147,196.660 277.838 C 195.967 277.529,194.635 276.954,193.700 276.561 C 192.765 276.168,192.000 275.722,192.000 275.570 C 192.000 275.418,191.595 275.163,191.100 275.004 C 190.256 274.733,190.249 274.703,190.985 274.512 C 191.416 274.400,191.836 274.509,191.918 274.754 C 192.000 274.999,192.491 275.200,193.010 275.200 C 193.528 275.200,194.045 275.349,194.157 275.531 C 194.270 275.713,195.495 276.183,196.881 276.575 C 198.266 276.967,199.760 277.435,200.200 277.614 C 200.950 277.919,201.556 278.068,204.300 278.622 L 205.400 278.844 204.400 278.236 C 203.850 277.902,202.905 277.622,202.300 277.614 C 201.695 277.606,201.200 277.420,201.200 277.200 C 201.200 276.980,200.581 276.800,199.824 276.800 C 199.067 276.800,198.336 276.620,198.200 276.400 C 198.064 276.180,197.586 276.000,197.138 276.000 C 196.690 276.000,195.756 275.704,195.062 275.343 C 192.697 274.111,192.411 274.000,191.605 274.000 C 191.162 274.000,190.800 273.832,190.800 273.627 C 190.800 273.422,190.395 273.128,189.900 272.973 C 189.405 272.819,188.910 272.572,188.800 272.425 C 188.690 272.278,187.970 271.848,187.200 271.468 C 185.477 270.619,184.403 269.955,183.686 269.297 C 183.384 269.021,182.747 268.586,182.269 268.332 C 179.088 266.637,172.055 259.994,168.367 255.200 C 165.922 252.022,161.200 244.723,161.200 244.122 C 161.200 243.974,160.858 243.121,160.440 242.226 C 158.610 238.313,157.267 234.736,156.376 231.400 C 156.200 230.740,155.768 229.210,155.417 228.000 C 155.066 226.790,154.623 225.080,154.432 224.200 C 154.242 223.320,153.790 221.250,153.427 219.600 C 153.065 217.950,152.585 215.430,152.361 214.000 C 151.620 209.273,151.178 206.213,151.088 205.200 L 151.000 204.200 220.200 203.997 C 258.260 203.886,289.445 203.751,289.500 203.697 C 289.895 203.313,289.492 181.009,288.989 175.405 C 288.034 164.781,286.295 154.690,284.196 147.600 C 283.838 146.390,283.398 144.860,283.219 144.200 C 282.864 142.887,282.231 141.156,281.538 139.600 C 281.023 138.444,280.682 137.620,279.800 135.400 C 278.511 132.160,277.838 130.800,277.523 130.800 C 277.345 130.800,277.200 130.552,277.200 130.249 C 277.200 129.946,276.930 129.474,276.600 129.200 C 276.270 128.926,276.000 128.364,276.000 127.951 C 276.000 127.538,275.799 127.200,275.553 127.200 C 275.265 127.200,275.206 127.590,275.386 128.300 C 275.539 128.905,275.751 130.120,275.858 131.000 C 275.964 131.880,276.151 132.870,276.273 133.200 C 277.154 135.573,276.371 136.400,273.243 136.400 C 271.833 136.400,267.102 127.682,267.954 126.656 C 268.555 125.931,272.371 124.682,273.417 124.867 C 274.710 125.095,274.542 123.701,273.030 121.641 C 272.244 120.570,271.600 119.492,271.600 119.246 C 271.600 119.001,271.420 118.800,271.200 118.800 C 270.980 118.800,270.800 118.573,270.800 118.296 C 270.800 118.019,270.350 117.307,269.800 116.713 C 269.250 116.120,268.800 115.524,268.800 115.389 C 268.800 115.254,268.575 114.906,268.300 114.616 C 268.025 114.326,267.440 113.578,267.000 112.954 C 264.655 109.628,260.981 105.665,257.400 102.598 C 255.860 101.279,254.510 100.101,254.400 99.979 C 254.290 99.857,253.120 99.031,251.800 98.142 C 247.130 94.998,245.393 94.000,244.588 94.000 C 244.301 94.000,244.007 93.865,243.933 93.700 C 243.860 93.535,242.720 92.889,241.400 92.264 C 240.080 91.639,238.490 90.874,237.868 90.564 C 237.245 90.254,236.400 90.000,235.991 90.000 C 235.582 90.000,235.136 89.820,235.000 89.600 C 234.864 89.380,234.253 89.200,233.643 89.200 C 233.033 89.200,232.398 89.065,232.234 88.900 C 231.873 88.540,228.389 87.615,226.297 87.324 C 225.471 87.209,224.695 86.955,224.574 86.758 C 224.452 86.561,223.148 86.423,221.676 86.450 C 219.217 86.496,219.130 86.526,220.600 86.817 M176.000 89.600 C 176.000 89.820,175.584 90.000,175.076 90.000 C 173.989 90.000,172.179 91.166,173.233 91.187 C 173.582 91.194,174.000 91.067,174.163 90.904 C 174.326 90.741,175.391 90.303,176.529 89.930 C 178.420 89.312,178.487 89.251,177.300 89.226 C 176.585 89.212,176.000 89.380,176.000 89.600 M170.200 91.784 C 169.540 92.053,168.415 92.499,167.700 92.776 C 166.985 93.052,166.400 93.442,166.400 93.643 C 166.400 93.859,166.683 93.857,167.100 93.637 C 167.485 93.434,168.430 93.013,169.200 92.701 C 171.890 91.614,172.596 91.254,172.000 91.275 C 171.670 91.286,170.860 91.515,170.200 91.784 M164.400 94.400 C 164.400 94.620,164.145 94.800,163.832 94.800 C 163.119 94.800,160.806 96.098,160.803 96.500 C 160.798 96.997,161.344 96.826,162.400 96.000 C 162.950 95.570,163.580 95.208,163.800 95.196 C 164.605 95.153,165.835 94.000,165.076 94.000 C 164.704 94.000,164.400 94.180,164.400 94.400 M158.200 97.788 C 157.540 98.329,156.775 98.778,156.500 98.786 C 156.225 98.794,156.000 98.952,156.000 99.137 C 156.000 99.322,155.370 99.813,154.600 100.228 C 153.830 100.643,153.200 101.121,153.200 101.291 C 153.200 101.461,153.007 101.600,152.771 101.600 C 152.536 101.600,152.118 101.825,151.842 102.100 C 151.567 102.375,150.645 103.140,149.794 103.800 C 146.930 106.021,138.951 114.230,137.088 116.873 C 136.696 117.428,135.841 118.482,135.188 119.214 C 134.535 119.945,134.000 120.700,134.000 120.890 C 134.000 121.079,133.550 121.720,133.000 122.313 C 132.450 122.907,132.000 123.619,132.000 123.896 C 132.000 124.173,131.820 124.400,131.600 124.400 C 131.380 124.400,131.200 124.592,131.200 124.827 C 131.200 125.061,130.750 125.843,130.200 126.564 C 129.650 127.286,129.200 127.990,129.200 128.130 C 129.200 128.270,128.570 129.369,127.800 130.573 C 127.030 131.777,126.400 132.986,126.400 133.261 C 126.400 134.010,126.939 133.299,128.416 130.600 C 130.021 127.669,132.492 123.848,132.900 123.667 C 133.065 123.593,133.200 123.356,133.200 123.140 C 133.200 122.809,134.935 120.250,135.600 119.600 C 135.713 119.490,136.338 118.680,136.990 117.800 C 137.641 116.920,138.590 115.750,139.097 115.200 C 139.604 114.650,140.683 113.390,141.493 112.400 C 142.807 110.795,146.333 107.458,151.000 103.404 C 151.880 102.639,152.915 101.909,153.300 101.780 C 153.685 101.651,154.000 101.378,154.000 101.173 C 154.000 100.968,154.255 100.800,154.567 100.800 C 154.878 100.800,155.193 100.654,155.267 100.476 C 155.340 100.297,156.525 99.462,157.900 98.619 C 159.275 97.776,160.400 97.022,160.400 96.943 C 160.400 96.491,159.236 96.938,158.200 97.788 M258.549 132.300 C 258.689 133.125,258.913 134.385,259.047 135.100 L 259.291 136.400 253.545 136.395 C 250.385 136.392,247.389 136.279,246.886 136.144 L 245.972 135.899 246.971 135.381 C 247.520 135.097,248.471 134.597,249.085 134.271 C 256.268 130.458,258.170 130.062,258.549 132.300 M124.655 136.422 C 124.026 137.754,123.603 138.936,123.714 139.048 C 123.874 139.207,125.216 136.771,126.331 134.300 C 126.406 134.135,126.316 134.000,126.133 134.000 C 125.949 134.000,125.284 135.090,124.655 136.422 M122.942 140.073 C 122.099 141.387,121.602 142.544,121.621 143.146 C 121.633 143.506,122.081 142.914,122.618 141.831 C 123.516 140.020,123.734 138.840,122.942 140.073 M120.428 145.636 C 119.973 146.579,119.600 147.666,119.600 148.052 C 119.600 148.437,119.420 148.864,119.200 149.000 C 118.980 149.136,118.812 149.642,118.826 150.124 C 118.848 150.879,118.925 150.835,119.389 149.800 C 121.368 145.389,122.244 141.878,120.428 145.636 M117.972 152.248 C 117.720 152.882,117.353 153.713,117.157 154.095 C 116.961 154.477,116.800 155.231,116.800 155.771 C 116.800 156.311,116.620 156.864,116.400 157.000 C 116.180 157.136,115.999 157.642,115.998 158.124 C 115.996 158.606,115.726 159.516,115.398 160.146 C 115.069 160.776,114.800 161.775,114.800 162.366 C 114.800 162.957,114.607 163.633,114.371 163.869 C 114.135 164.105,114.000 164.906,114.071 165.649 C 114.186 166.856,114.258 166.743,114.742 164.600 C 115.040 163.280,115.427 161.840,115.602 161.400 C 115.777 160.960,116.222 159.520,116.592 158.200 C 117.411 155.275,117.945 153.685,118.508 152.501 C 118.742 152.006,118.821 151.488,118.682 151.349 C 118.543 151.210,118.224 151.615,117.972 152.248 M249.594 153.900 C 249.597 154.395,249.420 154.800,249.200 154.800 C 248.980 154.800,248.803 154.125,248.806 153.300 C 248.811 152.184,248.912 151.954,249.200 152.400 C 249.413 152.730,249.591 153.405,249.594 153.900 M113.439 167.937 C 113.076 168.524,112.327 172.902,112.127 175.600 C 112.022 177.030,111.770 178.371,111.568 178.580 C 111.365 178.789,111.220 179.959,111.244 181.180 L 111.288 183.400 111.646 181.600 C 111.844 180.610,112.185 178.450,112.404 176.800 C 112.823 173.650,113.366 170.550,113.822 168.700 C 114.082 167.645,113.875 167.231,113.439 167.937 M246.307 175.090 C 247.026 175.179,248.106 175.177,248.707 175.086 C 249.308 174.995,248.720 174.922,247.400 174.924 C 246.080 174.926,245.588 175.001,246.307 175.090 M110.518 187.500 C 110.091 189.516,110.196 206.715,110.644 208.092 C 110.869 208.782,111.000 204.908,111.000 197.593 C 111.000 191.217,110.963 186.000,110.918 186.000 C 110.873 186.000,110.693 186.675,110.518 187.500 M117.975 236.900 C 117.951 238.116,117.925 238.139,117.574 237.263 C 117.367 236.748,117.299 236.163,117.423 235.963 C 117.832 235.300,118.000 235.586,117.975 236.900 M282.600 269.600 C 282.464 269.820,281.958 270.003,281.476 270.006 C 280.394 270.014,279.319 270.653,279.718 271.052 C 279.881 271.214,280.226 271.134,280.487 270.873 C 280.747 270.613,281.263 270.400,281.634 270.400 C 282.005 270.400,282.824 270.131,283.454 269.802 C 284.477 269.269,284.506 269.205,283.724 269.202 C 283.242 269.201,282.736 269.380,282.600 269.600 M277.000 271.600 C 276.864 271.820,276.234 272.000,275.600 272.000 C 274.966 272.000,274.336 272.180,274.200 272.400 C 274.064 272.620,273.548 272.800,273.053 272.800 C 272.558 272.800,271.804 273.064,271.376 273.387 C 270.514 274.040,271.195 274.220,272.305 273.633 C 272.687 273.432,274.080 272.958,275.400 272.582 C 277.865 271.879,279.095 271.200,277.904 271.200 C 277.543 271.200,277.136 271.380,277.000 271.600 M268.200 274.400 C 268.064 274.620,267.558 274.803,267.076 274.806 C 266.594 274.809,265.480 275.071,264.600 275.388 L 263.000 275.965 264.276 275.982 C 264.978 275.992,265.664 275.820,265.800 275.600 C 265.936 275.380,266.442 275.192,266.924 275.182 C 268.240 275.155,270.493 274.076,269.324 274.032 C 268.842 274.015,268.336 274.180,268.200 274.400 M258.000 277.150 C 258.000 277.343,257.004 277.584,255.786 277.685 C 254.568 277.786,253.353 278.100,253.086 278.384 C 252.693 278.802,252.829 278.848,253.800 278.629 C 254.460 278.479,255.720 278.203,256.600 278.015 C 257.480 277.827,258.740 277.492,259.400 277.271 L 260.600 276.869 259.300 276.834 C 258.585 276.815,258.000 276.958,258.000 277.150 M208.000 279.409 C 214.549 280.748,216.238 280.866,228.562 280.848 C 235.528 280.839,241.402 280.723,241.615 280.591 C 241.828 280.459,243.127 280.194,244.501 280.002 C 246.928 279.663,246.908 279.658,243.800 279.848 C 228.844 280.760,210.286 280.398,209.020 279.169 C 208.811 278.966,207.911 278.818,207.020 278.839 C 205.556 278.874,205.650 278.929,208.000 279.409 M248.000 279.200 C 247.218 279.706,249.024 279.706,250.200 279.200 C 250.887 278.905,250.830 278.853,249.800 278.834 C 249.140 278.822,248.330 278.987,248.000 279.200 " stroke="none" fill="#5f8c23" fill-rule="evenodd"></path><path id="path2" d="M126.000 136.584 C 126.000 136.932,125.550 137.929,125.000 138.800 C 124.450 139.671,124.000 140.658,124.000 140.992 C 124.000 141.326,123.820 141.600,123.600 141.600 C 123.380 141.600,123.200 141.926,123.200 142.324 C 123.200 142.721,122.936 143.396,122.613 143.824 C 122.290 144.251,122.020 144.915,122.013 145.300 C 122.006 145.685,121.820 146.000,121.600 146.000 C 121.380 146.000,121.200 146.332,121.200 146.739 C 121.200 147.412,120.535 149.111,119.574 150.895 C 119.368 151.277,119.200 151.864,119.200 152.200 C 119.200 152.536,119.030 153.123,118.821 153.505 C 118.428 154.227,116.947 158.510,116.368 160.600 C 115.128 165.075,114.685 166.815,114.382 168.400 C 114.192 169.390,113.870 171.010,113.666 172.000 C 113.462 172.990,113.083 175.150,112.824 176.800 C 112.566 178.450,112.146 180.970,111.892 182.400 C 111.611 183.984,111.428 189.766,111.425 197.200 C 111.420 209.270,111.651 212.419,113.025 219.000 C 113.347 220.540,113.608 222.331,113.605 222.980 C 113.601 223.840,113.720 224.040,114.041 223.719 C 114.325 223.435,114.386 222.513,114.213 221.139 C 113.517 215.614,113.560 209.045,114.311 206.116 C 114.728 204.487,114.911 202.984,114.730 202.661 C 114.530 202.304,114.649 201.891,115.047 201.561 C 115.397 201.271,115.829 200.649,116.008 200.179 C 116.423 199.089,119.908 198.800,132.661 198.800 C 138.269 198.800,141.600 198.653,141.600 198.406 C 141.600 198.157,136.908 197.972,128.900 197.906 L 116.200 197.800 116.065 196.800 C 115.991 196.250,115.549 195.389,115.082 194.886 C 114.358 194.105,114.299 193.804,114.673 192.812 C 115.019 191.897,114.986 191.473,114.520 190.807 C 114.195 190.343,114.027 189.707,114.147 189.394 C 114.267 189.082,114.209 188.729,114.017 188.611 C 113.533 188.311,113.559 181.783,114.054 179.600 C 114.278 178.610,114.629 176.450,114.834 174.800 C 115.767 167.297,117.896 157.971,118.907 156.960 C 119.068 156.799,119.200 156.244,119.200 155.728 C 119.200 155.212,119.369 154.477,119.575 154.095 C 119.781 153.713,120.429 152.050,121.014 150.400 C 121.599 148.750,122.342 146.770,122.666 146.000 C 123.388 144.281,123.864 143.134,124.449 141.700 C 124.696 141.095,125.140 140.132,125.436 139.560 C 126.462 137.578,126.783 136.437,126.385 136.191 C 126.173 136.060,126.000 136.237,126.000 136.584 M250.850 170.676 C 250.822 172.918,250.632 174.857,250.427 174.983 C 250.222 175.110,228.149 175.218,201.376 175.223 C 147.489 175.232,151.200 175.416,151.200 172.738 C 151.200 171.339,151.226 171.339,149.120 172.764 C 146.215 174.729,145.332 175.878,145.956 176.879 C 146.247 177.343,146.533 178.171,146.593 178.719 C 146.653 179.266,146.986 179.872,147.331 180.066 C 148.053 180.469,148.426 180.831,150.506 183.142 C 152.038 184.845,156.227 186.861,156.748 186.147 C 156.886 185.956,158.382 185.113,160.070 184.273 L 163.141 182.746 166.334 183.755 C 172.707 185.768,173.246 185.800,201.200 185.800 C 232.465 185.800,234.109 185.589,242.750 180.458 C 247.157 177.841,248.997 176.908,250.330 176.615 C 251.698 176.315,251.747 176.179,251.619 173.000 C 251.415 167.949,250.902 166.399,250.850 170.676 M238.105 281.487 C 238.714 281.579,239.614 281.577,240.105 281.482 C 240.597 281.387,240.100 281.311,239.000 281.314 C 237.900 281.317,237.497 281.395,238.105 281.487 " stroke="none" fill="#b1cd5a" fill-rule="evenodd"></path><path id="path3" d="M197.400 86.000 C 196.740 86.168,195.210 86.329,194.000 86.359 C 192.790 86.388,190.720 86.673,189.400 86.992 C 188.080 87.311,186.426 87.578,185.724 87.586 C 185.022 87.594,184.336 87.780,184.200 88.000 C 184.064 88.220,183.342 88.400,182.595 88.400 C 181.849 88.400,180.824 88.566,180.319 88.768 C 179.813 88.970,178.410 89.427,177.200 89.783 C 175.990 90.139,174.640 90.586,174.200 90.775 C 173.760 90.964,172.770 91.344,172.000 91.620 C 168.842 92.748,164.375 94.826,161.200 96.643 C 158.163 98.382,155.407 100.170,155.267 100.493 C 155.193 100.662,154.878 100.800,154.567 100.800 C 154.255 100.800,154.000 100.968,154.000 101.173 C 154.000 101.378,153.685 101.651,153.300 101.780 C 152.915 101.909,151.880 102.639,151.000 103.404 C 146.333 107.458,142.807 110.795,141.493 112.400 C 140.683 113.390,139.604 114.650,139.097 115.200 C 138.590 115.750,137.641 116.920,136.990 117.800 C 136.338 118.680,135.713 119.490,135.600 119.600 C 134.935 120.250,133.200 122.809,133.200 123.140 C 133.200 123.356,133.064 123.593,132.898 123.667 C 131.105 124.459,123.245 139.806,119.310 150.200 C 118.977 151.080,118.564 152.160,118.392 152.600 C 117.819 154.073,117.269 155.781,116.592 158.200 C 116.222 159.520,115.772 160.960,115.590 161.400 C 115.409 161.840,115.174 162.650,115.068 163.200 C 114.962 163.750,114.572 165.460,114.202 167.000 C 113.379 170.420,112.860 173.217,112.606 175.600 C 112.479 176.791,112.621 176.452,113.026 174.600 C 113.362 173.060,113.809 171.247,114.019 170.572 C 114.228 169.896,114.400 168.919,114.400 168.400 C 114.400 167.881,114.574 166.904,114.787 166.228 C 115.000 165.553,115.472 163.920,115.835 162.600 C 116.747 159.293,118.374 154.344,118.826 153.505 C 119.032 153.123,119.200 152.566,119.200 152.267 C 119.200 151.761,119.954 149.923,120.826 148.305 C 121.032 147.923,121.200 147.248,121.200 146.805 C 121.200 146.362,121.380 146.000,121.600 146.000 C 121.820 146.000,122.006 145.685,122.013 145.300 C 122.020 144.915,122.290 144.251,122.613 143.824 C 122.936 143.396,123.200 142.721,123.200 142.324 C 123.200 141.926,123.380 141.600,123.600 141.600 C 123.820 141.600,124.000 141.326,124.000 140.992 C 124.000 140.658,124.450 139.671,125.000 138.800 C 125.550 137.929,126.000 136.932,126.000 136.584 C 126.000 136.237,126.173 136.060,126.385 136.191 C 126.627 136.341,126.631 136.792,126.395 137.414 C 125.838 138.877,126.210 138.609,127.106 136.900 C 128.742 133.778,129.734 132.113,131.637 129.288 C 132.717 127.687,133.600 126.202,133.600 125.988 C 133.600 125.775,133.751 125.600,133.936 125.600 C 134.120 125.600,134.460 125.186,134.690 124.681 C 136.073 121.647,146.489 110.126,151.400 106.199 C 152.500 105.320,153.460 104.465,153.533 104.300 C 153.607 104.135,153.922 104.000,154.233 104.000 C 154.545 104.000,154.800 103.820,154.800 103.600 C 154.800 103.380,155.025 103.200,155.300 103.199 C 155.575 103.198,154.333 104.721,152.541 106.582 C 147.236 112.090,141.920 119.657,139.039 125.800 C 137.306 129.495,135.600 133.940,135.600 134.758 C 135.600 135.164,135.254 136.578,134.832 137.901 C 133.215 142.962,134.744 145.264,137.356 141.700 C 138.121 140.655,138.985 139.525,139.274 139.188 C 139.563 138.851,140.042 138.111,140.338 137.542 C 140.635 136.974,141.270 136.079,141.751 135.554 C 142.232 135.029,143.996 132.890,145.671 130.800 C 161.993 110.442,182.973 99.600,206.046 99.600 C 216.161 99.600,224.257 101.177,233.837 105.013 C 237.491 106.476,238.788 107.100,246.400 111.063 C 254.977 115.528,256.332 115.714,255.425 112.302 C 253.623 105.526,243.128 96.269,231.600 91.286 L 230.600 90.854 231.838 90.827 C 232.519 90.812,234.139 91.156,235.438 91.590 C 238.121 92.488,238.800 92.570,238.800 92.000 C 238.800 91.780,238.427 91.600,237.971 91.600 C 237.516 91.600,236.873 91.330,236.543 91.000 C 236.213 90.670,235.516 90.400,234.995 90.400 C 234.474 90.400,233.936 90.220,233.800 90.000 C 233.664 89.780,233.059 89.600,232.456 89.600 C 231.853 89.600,231.189 89.439,230.980 89.242 C 230.558 88.845,227.701 88.123,224.523 87.610 C 223.380 87.426,222.300 87.189,222.123 87.083 C 221.945 86.977,220.540 86.766,219.000 86.613 C 217.460 86.460,215.320 86.170,214.245 85.968 C 211.940 85.534,199.135 85.559,197.400 86.000 M250.479 171.689 L 250.400 174.777 249.100 175.152 C 247.885 175.503,247.869 175.530,248.851 175.564 C 250.484 175.620,250.853 174.815,250.698 171.537 L 250.559 168.600 250.479 171.689 M152.006 174.286 C 151.997 175.002,153.361 175.606,154.874 175.556 C 156.093 175.516,156.057 175.484,154.429 175.165 C 153.455 174.974,152.513 174.589,152.335 174.309 C 152.094 173.929,152.011 173.923,152.006 174.286 M178.931 175.100 C 191.213 175.159,211.193 175.159,223.331 175.100 C 235.469 175.041,225.420 174.993,201.000 174.993 C 176.580 174.993,166.649 175.041,178.931 175.100 M111.678 181.400 C 111.401 183.160,111.103 189.010,111.016 194.400 L 110.858 204.200 111.198 194.600 C 111.385 189.320,111.753 183.826,112.016 182.391 C 112.279 180.957,112.424 179.427,112.338 178.991 C 112.252 178.556,111.955 179.640,111.678 181.400 M111.340 207.600 C 111.340 209.470,111.409 210.235,111.493 209.300 C 111.577 208.365,111.577 206.835,111.493 205.900 C 111.409 204.965,111.340 205.730,111.340 207.600 M111.693 212.600 C 111.694 213.260,111.832 214.340,112.000 215.000 C 112.423 216.663,112.442 215.026,112.023 213.000 C 111.745 211.655,111.692 211.591,111.693 212.600 M286.200 268.800 C 286.064 269.020,285.648 269.201,285.276 269.202 C 284.904 269.204,284.084 269.474,283.454 269.802 C 282.824 270.131,281.980 270.400,281.578 270.400 C 281.176 270.400,280.736 270.580,280.600 270.800 C 280.464 271.020,279.949 271.200,279.456 271.200 C 278.963 271.200,278.389 271.357,278.180 271.549 C 277.971 271.740,276.720 272.208,275.400 272.589 C 274.080 272.969,272.640 273.421,272.200 273.594 C 271.760 273.766,270.320 274.223,269.000 274.610 C 267.680 274.996,266.240 275.455,265.800 275.629 C 265.360 275.803,264.460 276.031,263.800 276.135 C 263.140 276.239,261.610 276.627,260.400 276.997 C 256.895 278.070,253.717 278.694,246.259 279.774 C 243.872 280.120,241.763 280.499,241.573 280.617 C 241.383 280.734,235.528 280.839,228.562 280.848 C 215.774 280.867,214.586 280.774,206.800 279.145 C 204.710 278.708,202.550 278.258,202.000 278.145 C 201.450 278.032,200.640 277.793,200.200 277.614 C 199.760 277.435,198.266 276.967,196.881 276.575 C 195.495 276.183,194.270 275.713,194.157 275.531 C 194.045 275.349,193.528 275.200,193.010 275.200 C 192.491 275.200,192.000 274.999,191.918 274.754 C 191.836 274.509,191.416 274.400,190.985 274.512 C 190.249 274.703,190.256 274.733,191.100 275.004 C 191.595 275.163,192.000 275.418,192.000 275.570 C 192.000 275.722,192.765 276.168,193.700 276.561 C 194.635 276.954,195.967 277.529,196.660 277.838 C 197.354 278.147,198.288 278.400,198.737 278.400 C 199.186 278.400,199.664 278.580,199.800 278.800 C 199.936 279.020,200.466 279.200,200.978 279.200 C 201.490 279.200,202.424 279.469,203.054 279.798 C 203.684 280.126,204.594 280.396,205.076 280.398 C 205.558 280.399,206.064 280.580,206.200 280.800 C 206.336 281.020,207.301 281.200,208.344 281.200 C 209.387 281.200,210.411 281.370,210.620 281.578 C 211.054 282.008,218.186 282.793,224.400 283.094 C 228.794 283.307,240.739 282.648,245.200 281.948 C 246.630 281.723,248.790 281.455,250.000 281.352 C 251.210 281.249,252.560 281.002,253.000 280.805 C 253.440 280.607,254.520 280.360,255.400 280.255 C 258.036 279.941,261.374 279.163,261.780 278.769 C 261.989 278.566,262.516 278.400,262.952 278.400 C 263.925 278.400,266.215 277.710,267.732 276.960 C 268.355 276.652,269.123 276.400,269.438 276.400 C 269.753 276.400,270.323 276.229,270.705 276.019 C 272.065 275.274,274.257 274.424,278.400 273.034 C 287.095 270.117,287.600 269.894,287.600 268.976 C 287.600 268.322,286.575 268.193,286.200 268.800 M240.105 281.482 C 239.614 281.577,238.714 281.579,238.105 281.487 C 237.497 281.395,237.900 281.317,239.000 281.314 C 240.100 281.311,240.597 281.387,240.105 281.482 " stroke="none" fill="#8eaa88" fill-rule="evenodd"></path><path id="path4" d="M129.257 132.857 C 128.975 133.309,128.832 133.766,128.940 133.873 C 129.047 133.981,129.344 133.678,129.600 133.200 C 129.856 132.722,129.998 132.265,129.917 132.184 C 129.836 132.103,129.539 132.406,129.257 132.857 M127.728 135.683 C 125.765 139.037,122.522 146.145,121.014 150.400 C 120.429 152.050,119.781 153.713,119.575 154.095 C 119.369 154.477,119.200 155.212,119.200 155.728 C 119.200 156.244,119.068 156.799,118.907 156.960 C 117.896 157.971,115.767 167.297,114.834 174.800 C 114.629 176.450,114.278 178.610,114.054 179.600 C 113.559 181.783,113.533 188.311,114.017 188.611 C 114.209 188.729,114.267 189.082,114.147 189.394 C 114.027 189.707,114.195 190.343,114.520 190.807 C 114.986 191.473,115.019 191.897,114.673 192.812 C 114.299 193.804,114.358 194.105,115.082 194.886 C 115.549 195.389,115.991 196.250,116.065 196.800 L 116.200 197.800 128.900 197.906 C 136.908 197.972,141.600 198.157,141.600 198.406 C 141.600 198.653,138.269 198.800,132.661 198.800 C 119.908 198.800,116.423 199.089,116.008 200.179 C 115.829 200.649,115.397 201.271,115.047 201.561 C 114.649 201.891,114.530 202.304,114.730 202.661 C 114.911 202.984,114.728 204.487,114.311 206.116 C 113.560 209.045,113.517 215.614,114.213 221.139 C 114.362 222.325,114.317 223.443,114.111 223.649 C 113.598 224.162,115.168 231.328,115.969 232.129 C 116.206 232.366,116.400 233.154,116.400 233.880 C 116.400 234.787,116.588 235.200,117.000 235.200 C 117.678 235.200,117.880 232.220,117.230 231.819 C 116.789 231.546,116.803 226.400,117.244 226.400 C 117.412 226.400,117.606 225.842,117.675 225.160 C 117.893 223.000,119.181 222.813,133.919 222.806 C 146.027 222.800,146.943 222.850,148.494 223.600 C 149.405 224.040,150.386 224.400,150.675 224.400 C 150.964 224.400,151.200 224.608,151.200 224.861 C 151.200 225.535,153.133 229.511,153.601 229.800 C 153.841 229.949,154.000 229.402,154.000 228.424 C 154.000 227.531,153.843 226.800,153.651 226.800 C 153.459 226.800,153.191 225.945,153.056 224.900 C 152.921 223.855,152.643 222.100,152.440 221.000 C 150.779 212.014,149.820 204.614,150.232 203.948 C 150.353 203.753,180.693 203.600,219.424 203.600 L 288.400 203.600 288.400 192.473 C 288.400 186.354,288.234 180.369,288.030 179.173 C 287.827 177.978,287.551 175.312,287.417 173.248 C 287.283 171.185,286.999 169.172,286.786 168.775 C 286.574 168.377,286.400 166.841,286.400 165.360 C 286.400 161.388,286.090 162.395,285.769 167.408 C 285.450 172.382,284.941 173.600,283.178 173.600 C 282.556 173.600,281.936 173.780,281.800 174.000 C 281.663 174.222,279.822 174.400,277.655 174.400 L 273.757 174.400 272.440 173.041 C 271.615 172.190,270.428 171.502,269.261 171.200 C 268.238 170.935,266.501 170.437,265.402 170.094 C 264.113 169.692,261.750 169.458,258.736 169.435 C 252.461 169.388,252.577 169.551,250.722 158.200 C 250.074 154.234,249.463 154.485,249.749 158.600 C 250.356 167.361,250.553 169.030,250.833 167.800 L 251.105 166.600 251.177 167.800 C 251.217 168.460,251.387 170.350,251.555 172.000 C 251.941 175.786,251.802 176.292,250.289 176.624 C 248.995 176.909,247.130 177.857,242.750 180.458 C 234.109 185.589,232.465 185.800,201.200 185.800 C 173.246 185.800,172.707 185.768,166.334 183.755 L 163.141 182.746 160.070 184.273 C 158.382 185.113,156.886 185.956,156.748 186.147 C 156.227 186.861,152.038 184.845,150.506 183.142 C 148.426 180.831,148.053 180.469,147.331 180.066 C 146.986 179.872,146.653 179.266,146.593 178.719 C 146.533 178.171,146.247 177.343,145.956 176.879 C 145.332 175.878,146.215 174.729,149.120 172.764 C 151.231 171.335,151.200 171.335,151.200 172.776 C 151.200 173.423,151.380 174.064,151.600 174.200 C 151.850 174.355,152.003 173.502,152.008 171.924 C 152.015 169.534,152.371 166.573,153.249 161.600 C 154.764 153.013,155.003 151.891,155.526 150.926 C 156.081 149.903,156.154 148.400,155.649 148.400 C 155.455 148.400,155.050 148.985,154.749 149.700 C 154.189 151.026,154.127 151.273,154.046 152.500 C 154.021 152.885,153.775 153.201,153.500 153.203 C 152.958 153.205,151.600 155.338,151.600 156.186 C 151.600 157.376,149.704 158.000,146.091 158.000 C 141.768 158.000,141.251 157.688,139.627 154.100 C 139.403 153.605,139.056 153.200,138.857 153.200 C 138.353 153.200,137.993 151.651,138.434 151.379 C 138.631 151.257,138.440 150.672,138.009 150.079 C 137.578 149.485,137.158 148.312,137.077 147.472 C 136.714 143.714,132.343 143.384,131.424 147.045 C 131.278 147.627,130.718 148.752,130.179 149.544 C 129.641 150.337,129.189 151.259,129.175 151.593 C 129.079 153.870,124.800 158.991,124.800 156.828 C 124.800 156.593,124.469 156.400,124.064 156.400 C 123.308 156.400,122.248 154.686,122.715 154.218 C 122.859 154.075,122.923 153.337,122.857 152.579 C 122.791 151.811,122.924 151.200,123.157 151.200 C 123.387 151.200,123.466 150.917,123.333 150.570 C 123.089 149.934,123.314 149.051,125.106 143.600 C 126.103 140.568,126.696 139.084,128.050 136.231 C 128.978 134.275,128.765 133.912,127.728 135.683 M248.806 153.300 C 248.803 154.125,248.980 154.800,249.200 154.800 C 249.709 154.800,249.709 153.188,249.200 152.400 C 248.912 151.954,248.811 152.184,248.806 153.300 M117.423 235.963 C 117.299 236.163,117.367 236.748,117.574 237.263 C 117.925 238.139,117.951 238.116,117.975 236.900 C 118.000 235.586,117.832 235.300,117.423 235.963 " stroke="none" fill="#93ba22" fill-rule="evenodd"></path></g></svg>