<svg xmlns="http://www.w3.org/2000/svg" xmlns:xlink="http://www.w3.org/1999/xlink" aria-hidden="true" role="img" class="iconify iconify--logos" width="31.88" height="32" preserveAspectRatio="xMidYMid meet" viewBox="0 0 256 257">
  <path fill="#444" d="M120.23 155.8c-5.1 0-10.1-1.9-13.9-5.6l-52.3-52.3c-7.7-7.7-7.7-20.2 0-27.9l52.3-52.3c7.7-7.7 20.2-7.7 27.9 0l52.3 52.3c7.7 7.7 7.7 20.2 0 27.9l-52.3 52.3c-3.8 3.7-8.8 5.6-13.9 5.6zm0-90.1c-2.6 0-5.2.9-7.3 2.8l-52.3 52.3c-4 4-4 10.5 0 14.5l52.3 52.3c2 1.9 4.6 2.8 7.3 2.8s5.2-.9 7.3-2.8l52.3-52.3c4-4 4-10.5 0-14.5l-52.3-52.3c-2.1-1.9-4.6-2.8-7.3-2.8z"/>
</svg>
